<svg id="10015.io" viewBox="0 0 400 100" xmlns="http://www.w3.org/2000/svg"><defs><pattern id="svg-pattern" x="0" y="0" width="48" height="48" patternUnits="userSpaceOnUse" patternTransform="translate(25, 25) rotate(0) skewX(0)"><svg width="23" height="23" viewBox="0 0 100 100"><g fill="#526a40" opacity="1"><path d="M50.0439 50.0439C22.7868 49.2528 0.835069 27.3011 0.0439453 0.0439453C27.3011 0.835069 49.2528 22.7868 50.0439 50.0439Z"></path><path d="M50.0439 50C22.7868 50.7911 0.835069 72.7429 0.0439453 100C27.3011 99.2089 49.2528 77.2571 50.0439 50Z"></path><path d="M50 50.0439C77.2571 49.2528 99.2089 27.3011 100 0.0439453C72.7429 0.835069 50.7911 22.7868 50 50.0439Z"></path><path d="M50 50C77.2571 50.7911 99.2089 72.7429 100 100C72.7429 99.2089 50.7911 77.2571 50 50Z"></path></g></svg></pattern></defs><rect x="0" y="0" width="100%" height="100%" fill="#11150d"></rect><rect x="0" y="0" width="100%" height="100%" fill="url(#svg-pattern)"></rect></svg>